<?xml version="1.0" standalone="no"?>
<!DOCTYPE svg PUBLIC "-//W3C//DTD SVG 20010904//EN"
 "http://www.w3.org/TR/2001/REC-SVG-20010904/DTD/svg10.dtd">
<svg version="1.0" xmlns="http://www.w3.org/2000/svg"
 width="1024.000000pt" height="1024.000000pt" viewBox="0 0 1024.000000 1024.000000"
 preserveAspectRatio="xMidYMid meet">

<g transform="translate(0.000000,1024.000000) scale(0.100000,-0.100000)"
fill="#000000" stroke="none">
<path d="M5054 9371 c-55 -34 -64 -55 -64 -161 l0 -96 -98 -22 c-66 -15 -134
-40 -208 -76 -298 -147 -493 -377 -618 -727 l-34 -94 -101 -5 c-97 -5 -102 -6
-132 -37 -65 -65 -42 -181 41 -210 19 -7 68 -12 108 -12 l72 -1 0 -777 0 -778
-80 -72 c-201 -182 -350 -387 -440 -608 -212 -520 -161 -1182 122 -1599 37
-54 38 -58 17 -52 -219 63 -628 136 -764 136 -73 0 -122 -23 -150 -71 -18 -31
-20 -55 -23 -267 l-3 -233 -92 6 c-114 8 -150 -7 -185 -75 -22 -45 -23 -49
-20 -377 3 -318 4 -333 24 -360 32 -43 76 -60 239 -89 412 -74 1070 -262 1895
-544 476 -162 533 -180 577 -180 18 0 207 59 420 131 1100 370 1595 513 2116
613 93 18 130 42 152 99 14 37 16 86 13 364 -3 307 -4 323 -24 349 -45 61 -66
69 -182 69 l-107 0 -3 225 c-3 251 -9 276 -71 317 -27 18 -48 23 -103 23 -133
0 -487 -59 -665 -111 -39 -12 -76 -20 -82 -18 -5 2 10 36 36 74 215 330 297
833 207 1275 -32 158 -116 372 -200 513 -87 144 -264 349 -375 433 l-49 38 0
772 0 772 93 4 c68 3 99 9 120 22 74 50 76 156 4 210 -23 17 -47 22 -134 26
l-105 5 -27 85 c-15 47 -46 124 -68 172 -154 326 -472 589 -785 648 l-68 12 0
92 c0 73 -4 97 -20 123 -37 61 -116 81 -176 44z m235 -541 c202 -49 404 -204
522 -401 33 -55 109 -219 109 -235 0 -2 -362 -4 -805 -4 l-804 0 15 43 c154
439 563 693 963 597z m671 -1595 l0 -695 -68 34 c-37 19 -109 49 -160 66 l-92
33 0 291 c0 325 -7 391 -52 486 -59 123 -204 238 -338 269 -78 18 -230 13
-304 -9 -133 -42 -256 -155 -313 -289 l-28 -66 -3 -342 -3 -342 -67 -22 c-37
-12 -109 -41 -161 -65 -52 -24 -96 -44 -97 -44 -2 0 -4 313 -4 695 l0 695 845
0 845 0 0 -695z m-731 215 c61 -30 98 -67 125 -122 l26 -52 0 -276 0 -277 -72
14 c-73 14 -330 12 -420 -3 l-38 -6 0 264 c0 292 5 323 61 391 31 38 90 74
144 88 44 12 131 1 174 -21z m-244 -1537 c-3 -10 -56 -13 -225 -13 -121 0
-220 2 -220 5 0 3 13 33 28 68 80 176 234 369 357 449 l60 39 3 -268 c1 -147
0 -273 -3 -280z m421 433 c91 -84 175 -198 243 -332 28 -55 51 -104 51 -107 0
-4 -101 -7 -225 -7 l-225 0 0 280 0 281 41 -23 c22 -13 74 -54 115 -92z m559
-109 c93 -63 208 -161 285 -245 38 -41 70 -79 70 -84 0 -4 -76 -8 -169 -8
l-168 0 -23 63 c-31 84 -114 249 -161 319 -22 31 -39 59 -39 63 0 9 141 -65
205 -108z m-1501 91 c-4 -7 -22 -35 -40 -63 -45 -72 -107 -198 -140 -287 l-29
-78 -167 0 c-93 0 -168 4 -168 9 0 18 220 230 295 283 81 57 233 148 248 148
5 0 5 -6 1 -12z m-284 -692 c0 -2 -9 -46 -19 -97 -21 -102 -36 -216 -46 -346
l-7 -83 -239 0 -239 0 6 43 c27 195 60 331 106 440 l20 47 209 0 c115 0 209
-2 209 -4z m810 -261 l0 -265 -310 0 c-301 0 -310 1 -310 19 0 75 59 430 81
488 l9 23 265 0 265 0 0 -265z m818 168 c26 -119 39 -196 47 -288 3 -38 8 -87
11 -107 l6 -38 -311 0 -311 0 0 265 0 265 268 0 269 0 21 -97z m724 -22 c37
-110 78 -306 78 -377 l0 -34 -239 0 -239 0 -6 23 c-3 12 -6 45 -6 72 0 68 -27
285 -45 363 -8 35 -15 65 -15 68 0 2 98 3 217 2 l217 -3 38 -114z m-2422 -673
c1 -73 50 -380 76 -475 l6 -23 -210 0 -210 0 -30 73 c-51 123 -102 327 -102
408 l0 29 235 0 c181 0 235 -3 235 -12z m880 -243 l0 -255 -263 0 -263 0 -22
88 c-29 113 -49 230 -58 336 l-7 86 307 0 306 0 0 -255z m866 168 c-6 -75 -38
-264 -64 -383 l-8 -35 -267 -3 -267 -2 0 255 0 255 306 0 307 0 -7 -87z m754
73 c0 -71 -70 -336 -119 -448 l-20 -48 -212 0 -211 0 6 23 c25 88 76 408 76
480 0 4 108 7 240 7 203 0 240 -2 240 -14z m-2325 -818 c36 -94 90 -201 127
-256 17 -24 27 -46 24 -49 -8 -8 -170 92 -275 169 -51 39 -126 101 -165 139
l-71 68 166 1 166 0 28 -72z m703 -225 c2 -208 -1 -293 -9 -293 -6 0 -59 48
-119 108 -72 72 -130 141 -174 209 -62 95 -136 238 -136 263 0 7 66 10 218 8
l217 -3 3 -292z m722 292 c0 -3 -20 -45 -44 -93 -79 -157 -160 -269 -282 -389
-62 -62 -118 -113 -124 -113 -7 0 -10 101 -10 300 l0 300 230 0 c127 0 230 -2
230 -5z m600 -4 c0 -13 -155 -150 -244 -216 -78 -58 -253 -165 -268 -165 -4 0
13 31 37 70 38 57 123 232 148 303 6 15 23 17 167 17 88 0 160 -4 160 -9z
m-3170 -201 c603 -123 1296 -408 1778 -732 l72 -49 0 -154 c0 -85 -3 -155 -8
-155 -4 0 -30 15 -57 33 -242 163 -770 411 -1125 530 -219 74 -529 156 -735
196 l-90 18 -3 171 c-2 134 0 172 10 172 7 0 78 -13 158 -30z m4118 -142 l-3
-172 -45 -9 c-663 -125 -1381 -401 -1860 -716 -47 -31 -88 -57 -92 -59 -5 -2
-8 70 -8 161 l0 165 123 80 c407 265 946 499 1462 633 167 44 364 87 403 88
l22 1 -2 -172z m-4503 -413 c299 -34 929 -209 1345 -375 351 -140 836 -416
895 -511 49 -77 130 -100 196 -56 19 12 41 37 49 55 29 62 387 281 685 419
411 190 1037 380 1505 458 52 8 105 18 118 20 l22 5 0 -174 0 -175 -37 -9
c-21 -5 -94 -22 -163 -37 -441 -96 -888 -227 -1615 -472 -302 -102 -570 -190
-595 -195 -43 -10 -62 -5 -450 127 -993 336 -1415 460 -1870 549 -74 15 -145
29 -157 32 -23 4 -23 6 -23 180 0 162 1 175 18 170 9 -2 44 -7 77 -11z"/>
</g>
</svg>
